<svg width="393" height="104" viewBox="0 0 393 104" fill="none" xmlns="http://www.w3.org/2000/svg">
<path d="M27.0996 70.9473C37.321 78.7598 52.5391 82.666 72.7539 82.666C79.3945 82.666 85.4167 81.722 90.8203 79.834C92.1875 79.3783 93.278 79.1504 94.0918 79.1504C95.8171 79.1504 96.6797 79.9805 96.6797 81.6406C96.6797 82.9427 95.6868 85.1074 93.7012 88.1348C87.1257 98.1608 79.6549 103.174 71.2891 103.174C66.9922 103.174 62.8743 102.262 58.9355 100.439C53.2389 97.8678 47.2005 93.7012 40.8203 87.9395C34.4401 82.1777 29.8665 76.5137 27.0996 70.9473ZM44.2383 25.1953C38.8346 29.5898 34.7168 36.1165 31.8848 44.7754C30.3874 49.4629 29.6387 54.2155 29.6387 59.0332C29.6387 67.4642 32.3893 71.6797 37.8906 71.6797C40.6901 71.6797 43.5872 70.5241 46.582 68.2129C49.5768 65.9017 52.2624 62.9069 54.6387 59.2285C57.0475 55.5176 59.0169 51.123 60.5469 46.0449C62.1094 40.9668 62.8906 35.8887 62.8906 30.8105C62.8906 23.6491 61.6211 18.5547 59.082 15.5273C56.543 12.5 52.2786 10.9863 46.2891 10.9863C42.9688 10.9863 39.388 11.3444 35.5469 12.0605C31.7057 12.7767 28.4505 13.5742 25.7812 14.4531C23.1445 15.2995 20.7682 16.0807 18.6523 16.7969C16.5365 17.513 15.3158 17.8711 14.9902 17.8711C13.7858 17.8711 13.1836 17.3828 13.1836 16.4062C13.1836 15.625 13.9811 14.6159 15.5762 13.3789C17.2038 12.1094 19.4499 10.791 22.3145 9.42383C25.179 8.02409 28.3529 6.72201 31.8359 5.51758C39.9414 2.7181 47.8678 1.31836 55.6152 1.31836C70.4915 1.31836 81.0059 5.64779 87.1582 14.3066C90.7715 19.4173 92.5781 25.7324 92.5781 33.252C92.5781 38.9486 91.5853 44.3034 89.5996 49.3164C87.6139 54.2969 84.847 58.6589 81.2988 62.4023C77.7507 66.1458 73.584 69.3685 68.7988 72.0703C59.1309 77.5065 48.1771 80.2246 35.9375 80.2246C11.9792 80.2246 0 72.0378 0 55.6641C0 51.0742 0.992839 46.6797 2.97852 42.4805C4.96419 38.2487 7.56836 34.5866 10.791 31.4941C14.0462 28.3691 17.6921 25.6348 21.7285 23.291C29.9316 18.6035 38.1673 16.2598 46.4355 16.2598C47.7376 16.2598 48.6654 16.5039 49.2188 16.9922C49.8047 17.4479 50.0977 17.9199 50.0977 18.4082C50.0977 18.8965 50.0163 19.3197 49.8535 19.6777C49.7233 20.0033 49.4466 20.3939 49.0234 20.8496C48.6003 21.3053 48.2259 21.696 47.9004 22.0215C47.0866 22.7376 45.8659 23.7956 44.2383 25.1953ZM219.971 4.29688L239.648 3.75977C240.755 3.75977 241.309 4.08529 241.309 4.73633C241.309 6.33138 240.837 8.74023 239.893 11.9629C237.191 21.403 232.829 30.5501 226.807 39.4043C218.962 50.9277 209.31 60.791 197.852 68.9941C192.611 72.7702 187.484 75.6673 182.471 77.6855C177.49 79.7038 172.998 80.7129 168.994 80.7129C162.972 80.7129 158.757 76.1556 156.348 67.041C150.911 71.3053 145.589 74.6582 140.381 77.0996C135.173 79.5085 130.55 80.7129 126.514 80.7129C122.51 80.7129 118.701 78.9876 115.088 75.5371C111.475 72.0866 108.577 67.5781 106.396 62.0117C104.248 56.4128 103.174 50.6185 103.174 44.6289C103.174 39.681 104.281 34.3587 106.494 28.6621C107.243 26.6764 107.959 24.9023 108.643 23.3398C109.326 21.7448 109.668 20.6706 109.668 20.1172C109.668 19.5312 109.473 19.0267 109.082 18.6035C108.691 18.1803 108.057 17.8223 107.178 17.5293C106.006 17.1061 104.622 16.7806 103.027 16.5527C100.293 16.097 98.9258 15.1204 98.9258 13.623C98.9258 12.2884 100.521 10.8236 103.711 9.22852C106.934 7.63346 111.344 6.25 116.943 5.07812C122.575 3.8737 127.913 3.27148 132.959 3.27148C138.005 3.27148 141.683 3.59701 143.994 4.24805C146.338 4.86654 147.51 6.03841 147.51 7.76367C147.51 8.51237 147.249 9.34245 146.729 10.2539C140.674 20.3125 136.572 28.6133 134.424 35.1562C132.275 41.6992 131.201 48.8281 131.201 56.543C131.201 59.082 131.559 61.6211 132.275 64.1602C132.992 66.6992 133.903 67.9688 135.01 67.9688C136.475 67.9688 138.379 66.8783 140.723 64.6973C143.066 62.5163 145.589 59.4727 148.291 55.5664C151.025 51.6602 153.695 47.2819 156.299 42.4316C162.191 31.4941 166.406 20.1986 168.945 8.54492C169.303 6.62435 170.459 5.53385 172.412 5.27344L193.066 4.73633C194.173 4.73633 194.727 5.11068 194.727 5.85938C193.262 12.8906 190.186 21.0286 185.498 30.2734C183.675 33.9193 181.885 37.4837 180.127 40.9668C176.188 48.877 174.219 54.8503 174.219 58.8867C174.219 63.3138 174.74 66.0807 175.781 67.1875C176.27 67.7083 177.083 67.9688 178.223 67.9688C179.362 67.9688 181.104 67.1061 183.447 65.3809C185.824 63.623 188.477 60.9863 191.406 57.4707C194.336 53.9225 197.266 49.7884 200.195 45.0684C206.934 34.2611 212.37 21.7611 216.504 7.56836C217.155 5.38737 218.311 4.29688 219.971 4.29688ZM285.4 9.42383C285.4 12.9069 283.464 15.9505 279.59 18.5547C275.749 21.1263 271.68 22.4121 267.383 22.4121C263.118 22.4121 259.798 21.5495 257.422 19.8242C255.046 18.0664 253.857 15.9342 253.857 13.4277C253.857 10.9212 254.769 8.64258 256.592 6.5918C258.415 4.54102 260.775 2.92969 263.672 1.75781C266.602 0.585938 269.775 0 273.193 0C276.611 0 279.492 0.911458 281.836 2.73438C284.212 4.52474 285.4 6.75456 285.4 9.42383ZM271.68 70.0195C273.893 70.0195 276.888 69.4987 280.664 68.457C284.473 67.3828 287.24 66.4388 288.965 65.625C290.69 64.7786 291.895 64.3555 292.578 64.3555C293.945 64.3555 294.629 65.0391 294.629 66.4062C294.629 67.0247 294.124 67.7246 293.115 68.5059C289.795 70.9798 283.822 73.5514 275.195 76.2207C266.569 78.89 258.87 80.2246 252.1 80.2246C247.9 80.2246 244.385 79.5573 241.553 78.2227C238.721 76.888 237.305 74.8535 237.305 72.1191C237.305 70.459 238.721 66.39 241.553 59.9121C246.891 47.64 249.561 38.3952 249.561 32.1777L249.512 30.3223C249.512 28.6947 251.09 27.8809 254.248 27.8809L278.369 27.3438C279.215 27.3438 279.85 27.6042 280.273 28.125C280.697 28.6133 280.908 29.1667 280.908 29.7852C280.908 32.0312 279.883 35.7422 277.832 40.918C275.781 46.0612 273.73 51.123 271.68 56.1035C269.629 61.084 268.604 64.6484 268.604 66.7969C268.604 68.9453 269.629 70.0195 271.68 70.0195ZM307.861 18.3594L302.1 19.5312C301.383 19.5312 300.846 19.4336 300.488 19.2383C300.13 19.043 299.951 18.5872 299.951 17.8711C299.951 17.1224 300.358 16.2272 301.172 15.1855C302.018 14.1439 302.946 13.265 303.955 12.5488C307.699 9.87956 312.142 7.50326 317.285 5.41992C322.428 3.33659 327.067 2.29492 331.201 2.29492C335.368 2.29492 338.346 3.02734 340.137 4.49219C341.96 5.95703 342.871 8.80534 342.871 13.0371C342.871 17.8548 340.495 25.6999 335.742 36.5723C333.757 41.097 331.787 45.5892 329.834 50.0488C325.081 60.8236 322.705 68.2617 322.705 72.3633L322.852 75.5859C322.852 76.5951 322.298 77.3926 321.191 77.9785C320.085 78.5645 318.929 78.8574 317.725 78.8574L298.145 79.1504C294.531 79.1504 292.334 78.5319 291.553 77.2949C291.195 76.6764 291.016 75.7324 291.016 74.4629C291.016 73.1608 291.243 71.4844 291.699 69.4336C292.188 67.3503 293.506 63.8184 295.654 58.8379C297.803 53.8249 299.951 49.1374 302.1 44.7754C307.666 33.4147 310.449 26.1068 310.449 22.8516C310.449 21.1589 310.238 19.987 309.814 19.3359C309.391 18.6849 308.74 18.3594 307.861 18.3594ZM370.166 4.24805L390.088 3.125C391.553 3.125 392.285 3.75977 392.285 5.0293C392.285 6.29883 391.455 9.61914 389.795 14.9902C388.135 20.3613 386.426 24.3978 384.668 27.0996C382.943 29.8014 381.038 32.0312 378.955 33.7891C376.904 35.5469 374.447 37.028 371.582 38.2324C366.797 40.2832 360.579 41.7969 352.93 42.7734C353.809 42.7083 355.143 42.6758 356.934 42.6758C358.757 42.6758 360.384 42.7246 361.816 42.8223C363.281 42.8874 364.795 43.0339 366.357 43.2617C367.92 43.457 369.238 43.7663 370.312 44.1895C371.387 44.6126 372.38 45.166 373.291 45.8496C375.081 47.1517 375.977 49.1536 375.977 51.8555C375.977 52.5391 375.83 53.7435 375.537 55.4688C375.244 57.194 375.098 58.9193 375.098 60.6445C375.098 62.3698 375.277 63.8021 375.635 64.9414C376.025 66.0482 376.595 66.8783 377.344 67.4316C378.646 68.3431 380.501 68.7988 382.91 68.7988C385.319 68.7988 386.523 69.6126 386.523 71.2402C386.523 73.3887 384.587 75.3743 380.713 77.1973C376.449 79.2155 369.743 80.2246 360.596 80.2246C352.002 80.2246 346.501 78.6296 344.092 75.4395C343.05 74.0072 342.529 72.1191 342.529 69.7754C342.529 67.4316 343.148 63.9648 344.385 59.375C345.654 54.7852 346.289 51.9206 346.289 50.7812C346.289 49.6094 346.11 48.6003 345.752 47.7539C345.426 46.875 344.987 46.2077 344.434 45.752C343.913 45.2962 343.311 44.9382 342.627 44.6777C341.976 44.3848 341.309 44.1732 340.625 44.043C339.974 43.9128 339.372 43.7988 338.818 43.7012C337.614 43.4408 337.012 42.985 337.012 42.334C337.012 40.9017 338.037 39.7949 340.088 39.0137C348.193 36.1491 354.118 32.2103 357.861 27.1973C359.782 24.6257 361.312 21.8913 362.451 18.9941C363.623 16.097 364.648 12.5977 365.527 8.49609C366.113 5.66406 367.66 4.24805 370.166 4.24805Z" fill="#93806B"/>
</svg>
